<svg id="Layer_1" data-name="Layer 1" xmlns="http://www.w3.org/2000/svg" viewBox="0 0 444.93 101"><defs><style>.cls-1,.cls-2{fill:#cc2128;}.cls-1,.cls-3,.cls-4{fill-rule:evenodd;}.cls-3{fill:#a4222d;}.cls-4,.cls-5{fill:#fff;}.cls-6{fill:#707071;}</style></defs><title>logo</title><path class="cls-1" d="M143.45,690.49c-0.61,8.18-3.07,15.87-6.83,21.4s-8.52,8.44-13.23,8.08-9-3.94-11.87-10-4.17-14-3.56-22.18l0.64-5.13,0.12,0.43c1.12,4,3.34,6.66,6.19,7.38a6.76,6.76,0,0,0,3,.05l-1,3.16a27.35,27.35,0,0,0-.21,13.7c1.1,3.93,3.28,6.53,6.07,7.24s6-.53,8.8-3.45a29.51,29.51,0,0,0,6.58-25.82c-1.1-3.93-3.28-6.53-6.07-7.24a6.65,6.65,0,0,0-2.84-.08,33.16,33.16,0,0,0,1.08-3.43,27.86,27.86,0,0,0,.21-14,16.34,16.34,0,0,0-.72-2c4,1,7.53,4.43,10,9.67,2.89,6,4.17,14,3.56,22.18" transform="translate(-77.86 -640.42)"/><path class="cls-2" d="M175,683.66l-39-39.14c-0.34-.42-3.51-4.1-7.86-4.1-5,0-9.29,4.71-9.62,5.1l-36.56,37A11.12,11.12,0,0,0,77.86,691c0,4.17,3.58,7.23,3.72,7.32l38.9,39.24c0.32,0.4,3.26,3.88,7.51,3.88a10.14,10.14,0,0,0,7.13-3.36l39.94-39.82c0.77-.81,3.29-3.72,3.29-7A11,11,0,0,0,175,683.66Z" transform="translate(-77.86 -640.42)"/><path class="cls-3" d="M147.29,688.32c-0.73,9.52-3.61,18.48-8,24.92s-9.92,9.84-15.39,9.44-10.42-4.56-13.76-11.57-4.81-16.29-4.07-25.8l0.75-6,1.88,2.19c-0.08,4.8,6.56,8.89,7.76,8.64l0,2a31.88,31.88,0,0,0-.28,15.94c1.26,4.57,3.8,7.59,7,8.41s6.92-.63,10.23-4a34.49,34.49,0,0,0,7.71-30.07c-1.27-4.57-3.8-7.59-7-8.41a7.71,7.71,0,0,0-3.3-.08,38.78,38.78,0,0,0,1.26-4c1.47-5.74-1-8.2-2.27-12.85-0.24-.84-0.13-4.6-0.45-5.33,4.62,1.19,10.91,4.71,13.82,10.8,3.35,7,4.81,16.29,4.08,25.8" transform="translate(-77.86 -640.42)"/><path class="cls-4" d="M143.45,688.9c-0.61,8.18-3.07,15.87-6.83,21.4s-8.52,8.44-13.23,8.08-9-3.94-11.87-10-4.17-14-3.56-22.18l0.64-5.13,0.12,0.43c1.12,4,3.34,6.66,6.19,7.38a6.76,6.76,0,0,0,3,.05l-1,3.16a27.35,27.35,0,0,0-.21,13.7c1.1,3.93,3.28,6.53,6.07,7.24s6-.53,8.8-3.45a29.51,29.51,0,0,0,6.58-25.82c-1.1-3.93-3.28-6.53-6.07-7.24a6.65,6.65,0,0,0-2.84-.08,33.16,33.16,0,0,0,1.08-3.43,27.86,27.86,0,0,0,.21-14,16.34,16.34,0,0,0-.72-2c4,1,7.53,4.43,10,9.67,2.89,6,4.17,14,3.56,22.18" transform="translate(-77.86 -640.42)"/><path class="cls-5" d="M128,738c-4.41,0-7.44-3.38-8-4L85.12,698.8c-1-.79-3.9-3.83-3.9-7.83a11.73,11.73,0,0,1,4.21-8.88l32.8-33.17c0.49-.55,4.7-5.12,9.88-5.12,4.51,0,7.73,3.56,8.3,4.23l35.07,35.15a11.53,11.53,0,0,1,3.52,8.06c0,3.42-2.39,6.32-3.42,7.4l0,0L135.6,734.52h0A10.69,10.69,0,0,1,128,738ZM87.21,696.21l0.07,0,35.25,35.57c0.09,0.12,2.35,2.87,5.46,2.87a7.49,7.49,0,0,0,5.1-2.37l0-.06,0.1-.1,35.93-35.82c0.45-.48,2.49-2.78,2.49-5.1a8.19,8.19,0,0,0-2.45-5.61l-0.09-.08-35.19-35.28-0.05-.06c-0.1-.13-2.57-3.08-5.78-3.08s-6.43,2.9-7.4,4l-0.08.08-33,33.36-0.09.07a8.39,8.39,0,0,0-3,6.32C84.55,693.74,86.91,695.94,87.21,696.21Zm45.86,36.15,0,0Zm-45.94-36.2,0,0Z" transform="translate(-77.86 -640.42)"/><path class="cls-6" d="M203.29,673.91h7.83v31h7.67L217.48,712H203.29V673.91Z" transform="translate(-77.86 -640.42)"/><path class="cls-6" d="M232.76,673.91l1.89,7.09h-5.1v31h-7.78V681h-5.1l2-7.09h14.08Z" transform="translate(-77.86 -640.42)"/><path class="cls-6" d="M245.21,712l-1.37-7.09H252c0.68,0,.89-0.21.89-0.79v-6.93c0-1.05-.37-1.1-1.42-1.1h-3.94c-2.26,0-4.26-.53-4.26-4.31V678.84c0-3,1.58-4.94,5.15-4.94H259l1.31,7.09h-8.62a0.79,0.79,0,0,0-.95.84v6.93c0,0.79.37,1,1.16,1h4.78c2.42,0,3.78,1.05,3.78,3.89v12.56c0,4.2-1.47,5.78-5.83,5.78h-9.4Z" transform="translate(-77.86 -640.42)"/><path class="cls-6" d="M270.54,707.27L269.85,712h-7.67l6.88-38.09h8.14L284.09,712h-7.67l-0.68-4.73h-5.2Zm0.84-6h3.52l-1.73-13.5Z" transform="translate(-77.86 -640.42)"/><path class="cls-6" d="M286.19,673.91H301l1.31,7.09H294v9h6.3v6.57H294V712h-7.83V673.91Z" transform="translate(-77.86 -640.42)"/><path class="cls-6" d="M304.68,673.91H319.5l1.31,7.09h-8.3v9h6.3v6.57h-6.3v8.3h8L319.18,712h-14.5V673.91Z" transform="translate(-77.86 -640.42)"/><path class="cls-6" d="M338.46,673.91l1.89,7.09h-5.1v31h-7.78V681h-5.1l2-7.09h14.08Z" transform="translate(-77.86 -640.42)"/><path class="cls-6" d="M356.9,712h-8v-9.67l-7.3-28.42h7.88l3.41,18,3.47-18h7.88l-7.3,28.42V712Z" transform="translate(-77.86 -640.42)"/><path class="cls-6" d="M374.76,712l-1.37-7.09h8.2c0.68,0,.89-0.21.89-0.79v-6.93c0-1.05-.37-1.1-1.42-1.1h-3.94c-2.26,0-4.26-.53-4.26-4.31V678.84c0-3,1.58-4.94,5.15-4.94h10.51l1.31,7.09h-8.62a0.79,0.79,0,0,0-.95.84v6.93c0,0.79.37,1,1.16,1h4.78c2.42,0,3.78,1.05,3.78,3.89v12.56c0,4.2-1.47,5.78-5.83,5.78h-9.4Z" transform="translate(-77.86 -640.42)"/><path class="cls-6" d="M393.14,673.91H408l1.31,7.09H401v9h6.3v6.57H401v8.3h8L407.64,712h-14.5V673.91Z" transform="translate(-77.86 -640.42)"/><path class="cls-6" d="M431.49,696.5a3.3,3.3,0,0,1-3.41,3.36l4,12.14h-7.88l-3.68-12.14h-1V712H411.9V673.91h14.45c3.57,0,5.15,1.94,5.15,4.94V696.5Zm-12-15.92v13.13h3.73c0.58,0,.74-0.21.74-0.79V681.37a0.68,0.68,0,0,0-.74-0.79h-3.73Z" transform="translate(-77.86 -640.42)"/><path class="cls-6" d="M447.88,673.91h7.72l-7,38.09h-7.93l-7-38.09h7.72l0.68,4.89,2.57,19.7,2.63-19.81Z" transform="translate(-77.86 -640.42)"/><path class="cls-6" d="M457.71,673.91h7.62V712h-7.62V673.91Z" transform="translate(-77.86 -640.42)"/><path class="cls-6" d="M474.41,712c-4.36,0-5.94-1.68-5.94-5.88V678.58a4.3,4.3,0,0,1,4.47-4.68h10l1.31,7.09H477a0.61,0.61,0,0,0-.68.74v22.43a0.61,0.61,0,0,0,.68.74h7.3L482.92,712h-8.51Z" transform="translate(-77.86 -640.42)"/><path class="cls-6" d="M486.91,673.91h14.82L503,681h-8.3v9H501v6.57h-6.3v8.3h8L501.41,712h-14.5V673.91Z" transform="translate(-77.86 -640.42)"/><path class="cls-6" d="M507.56,712l-1.37-7.09h8.2c0.68,0,.89-0.21.89-0.79v-6.93c0-1.05-.37-1.1-1.42-1.1h-3.94c-2.26,0-4.26-.53-4.26-4.31V678.84c0-3,1.58-4.94,5.15-4.94h10.51l1.31,7.09H514a0.79,0.79,0,0,0-.95.84v6.93c0,0.79.37,1,1.16,1H519c2.42,0,3.78,1.05,3.78,3.89v12.56c0,4.2-1.47,5.78-5.83,5.78h-9.4Z" transform="translate(-77.86 -640.42)"/></svg>