<svg id="Layer_1" data-name="Layer 1" xmlns="http://www.w3.org/2000/svg" viewBox="0 0 373.9 154.84"><defs><style>.cls-1{fill:#053349;}.cls-2{fill:#ddaf27;}</style></defs><title>logo-lt-marine-safety</title><path class="cls-1" d="M124.56,271.81H119.5v-5.07h5.07Zm0,10.25H119.5V277h5.07Zm0,10.25H119.5v-5.07h5.07Zm0,10.25H119.5v-5.07h5.07Zm0,10.25H119.5v-5.07h5.07Zm0,10.25H119.5V318h5.07Zm0,10.25H119.5v-5.07h5.07Zm0,10.25H119.5v-5.18h5.07Zm0,10.13H119.5v-5.07h5.07Zm0,10.25H119.5v-5.07h5.07Zm0,10.25H119.5v-5.07h5.07Zm0,10.25H119.5v-5.07h5.07Zm10.25-112.62h-5.07v-5.07h5.07Zm0,10.25h-5.07V277h5.07Zm0,10.25h-5.07v-5.07h5.07Zm0,10.25h-5.07v-5.07h5.07Zm0,10.25h-5.07v-5.07h5.07Zm0,10.25h-5.07V318h5.07Zm0,10.25h-5.07v-5.07h5.07Zm0,10.25h-5.07v-5.18h5.07Zm0,10.13h-5.07v-5.07h5.07Zm0,10.25h-5.07v-5.07h5.07Zm0,10.25h-5.07v-5.07h5.07Zm0,10.25h-5.07v-5.07h5.07Zm10.25-112.62H140v-5.07h5.07Zm0,10.25H140V277h5.07Zm0,10.25H140v-5.07h5.07Zm0,10.25H140v-5.07h5.07Zm0,10.25H140v-5.07h5.07Zm0,10.25H140V318h5.07Zm0,10.25H140v-5.07h5.07Zm0,10.25H140v-5.18h5.07Zm0,10.13H140v-5.07h5.07Zm0,10.25H140v-5.07h5.07Zm0,10.25H140v-5.07h5.07Zm0,10.25H140v-5.07h5.07Zm10.25-10.25h-5.07v-5.07h5.07Zm0,10.25h-5.07v-5.07h5.07Zm10.25-10.25h-5.07v-5.07h5.07Zm0,10.25h-5.07v-5.07h5.07Zm10.25-10.25h-5.07v-5.07h5.07Zm0,10.25h-5.07v-5.07h5.07Zm10.25-10.25H181v-5.07h5.07Zm0,10.25H181v-5.07h5.07Zm9.82-10.25h-5.07v-5.07h5.07Zm0,10.25h-5.07v-5.07h5.07Z" transform="translate(-119.5 -265.18)"/><path class="cls-2" d="M134.81,271.81h-5.07v-5.07h5.07Zm0,10.25h-5.07V277h5.07Zm10.25-10.25H140v-5.07h5.07Zm0,10.25H140V277h5.07Zm10.25-10.25h-5.07v-5.07h5.07Zm0,10.25h-5.07V277h5.07Zm0,10.25h-5.07v-5.07h5.07Zm0,10.25h-5.07v-5.07h5.07Zm0,10.25h-5.07v-5.07h5.07Zm0,10.25h-5.07V318h5.07Zm0,10.25h-5.07v-5.07h5.07Zm0,10.25h-5.07v-5.18h5.07Zm0,10.13h-5.07v-5.07h5.07Zm0,10.25h-5.07v-5.07h5.07Zm10.25-92.12h-5.07v-5.07h5.07Zm0,10.25h-5.07V277h5.07Zm0,10.25h-5.07v-5.07h5.07Zm0,10.25h-5.07v-5.07h5.07Zm0,10.25h-5.07v-5.07h5.07Zm0,10.25h-5.07V318h5.07Zm0,10.25h-5.07v-5.07h5.07Zm0,10.25h-5.07v-5.18h5.07Zm0,10.13h-5.07v-5.07h5.07Zm0,10.25h-5.07v-5.07h5.07Zm10.25-92.12h-5.07v-5.07h5.07Zm0,10.25h-5.07V277h5.07Zm0,10.25h-5.07v-5.07h5.07Zm0,10.25h-5.07v-5.07h5.07Zm0,10.25h-5.07v-5.07h5.07Zm0,10.25h-5.07V318h5.07Zm0,10.25h-5.07v-5.07h5.07Zm0,10.25h-5.07v-5.18h5.07Zm0,10.13h-5.07v-5.07h5.07Zm0,10.25h-5.07v-5.07h5.07Zm10.25-92.12H181v-5.07h5.07Zm0,10.25H181V277h5.07Zm10.25-10.25h-5.07v-5.07h5.07Zm0,10.25h-5.07V277h5.07Z" transform="translate(-119.5 -265.18)"/><path class="cls-1" d="M213.06,310.07l4.44-2.67q4.7,8.64,10.85,8.64a10.41,10.41,0,0,0,4.94-1.23,8.68,8.68,0,0,0,3.52-3.29,8.52,8.52,0,0,0,1.21-4.37,8.9,8.9,0,0,0-1.78-5.16q-2.46-3.48-9-8.4t-8.15-7.15a13.07,13.07,0,0,1-2.77-8,12.12,12.12,0,0,1,1.64-6.23,11.66,11.66,0,0,1,4.61-4.43,13.27,13.27,0,0,1,6.46-1.62A13.74,13.74,0,0,1,236,268q3.22,1.83,6.81,6.74L238.53,278a20.5,20.5,0,0,0-5-5.16,8.64,8.64,0,0,0-4.53-1.25,7.19,7.19,0,0,0-5.18,1.92,6.29,6.29,0,0,0-2,4.73,8.1,8.1,0,0,0,.71,3.31,12.21,12.21,0,0,0,2.6,3.48q1,1,6.76,5.23,6.8,5,9.32,8.93a14.39,14.39,0,0,1,2.53,7.86,13.34,13.34,0,0,1-4.32,9.89,14.53,14.53,0,0,1-10.51,4.2,15.45,15.45,0,0,1-8.64-2.54Q216.33,316,213.06,310.07Z" transform="translate(-119.5 -265.18)"/><path class="cls-1" d="M292.49,281.11v38.7h-4.91v-6.65a21.35,21.35,0,0,1-7,5.73,19.62,19.62,0,0,1-22.55-4,20,20,0,0,1-5.82-14.49,19.62,19.62,0,0,1,5.87-14.3,19.14,19.14,0,0,1,14.12-5.94,18.27,18.27,0,0,1,8.63,2,19.67,19.67,0,0,1,6.78,6.08v-7.12Zm-19.9,3.81a15,15,0,0,0-13.27,7.78,15.69,15.69,0,0,0,0,15.63,15.28,15.28,0,0,0,5.63,5.81,14.72,14.72,0,0,0,7.59,2.08,15.56,15.56,0,0,0,7.75-2.06,14.43,14.43,0,0,0,5.63-5.58,15.89,15.89,0,0,0,2-7.92,15.4,15.4,0,0,0-4.42-11.23A14.65,14.65,0,0,0,272.59,284.92Z" transform="translate(-119.5 -265.18)"/><path class="cls-1" d="M319.64,266.17V271a12.34,12.34,0,0,0-4.7-1.18,4.58,4.58,0,0,0-2.42.59,2.61,2.61,0,0,0-1.21,1.35,18.66,18.66,0,0,0-.25,4.07v5.23h8.08v4.3h-8.08l0,34.4h-5v-34.4H301v-4.3H306v-6a16.42,16.42,0,0,1,.76-5.94,6.11,6.11,0,0,1,2.6-2.86,8.53,8.53,0,0,1,4.43-1.08A21.11,21.11,0,0,1,319.64,266.17Z" transform="translate(-119.5 -265.18)"/><path class="cls-1" d="M359.15,307l4.2,2.21a22.81,22.81,0,0,1-4.77,6.55,18.94,18.94,0,0,1-6.09,3.79,21.23,21.23,0,0,1-7.66,1.3q-9.47,0-14.81-6.21a20.94,20.94,0,0,1-5.34-14,20.69,20.69,0,0,1,4.52-13.13,18.49,18.49,0,0,1,15.34-7.33,19.09,19.09,0,0,1,15.81,7.51,21,21,0,0,1,4.27,13.23H329.81a15.76,15.76,0,0,0,4.31,11.05,13.75,13.75,0,0,0,10.29,4.31,16.53,16.53,0,0,0,5.75-1,15.19,15.19,0,0,0,4.75-2.73A23.18,23.18,0,0,0,359.15,307Zm0-10.42a16.5,16.5,0,0,0-2.9-6.37,13.73,13.73,0,0,0-5-3.84,15.42,15.42,0,0,0-6.59-1.46,14.2,14.2,0,0,0-9.8,3.66,16.57,16.57,0,0,0-4.52,8Z" transform="translate(-119.5 -265.18)"/><path class="cls-1" d="M378.26,266.74h5v14.37h7.9v4.3h-7.9v34.4h-5v-34.4h-6.8v-4.3h6.8Z" transform="translate(-119.5 -265.18)"/><path class="cls-1" d="M394.44,281.11h5.27L413,310.92l12.92-29.81h5.3L408.14,334h-5.26l7.45-17.09Z" transform="translate(-119.5 -265.18)"/><path class="cls-1" d="M213.06,373.18l4.44-2.67q4.7,8.64,10.85,8.64a10.41,10.41,0,0,0,4.94-1.23,8.68,8.68,0,0,0,3.52-3.29,8.52,8.52,0,0,0,1.21-4.37,8.9,8.9,0,0,0-1.78-5.16q-2.46-3.48-9-8.4t-8.15-7.15a13.07,13.07,0,0,1-2.77-8,12.12,12.12,0,0,1,1.64-6.23,11.66,11.66,0,0,1,4.61-4.43,13.27,13.27,0,0,1,6.46-1.62,13.74,13.74,0,0,1,6.92,1.83q3.22,1.83,6.81,6.74l-4.27,3.24a20.5,20.5,0,0,0-5-5.16A8.64,8.64,0,0,0,229,334.7a7.19,7.19,0,0,0-5.18,1.92,6.29,6.29,0,0,0-2,4.73,8.1,8.1,0,0,0,.71,3.31,12.21,12.21,0,0,0,2.6,3.48q1,1,6.76,5.23,6.8,5,9.32,8.93a14.39,14.39,0,0,1,2.53,7.86,13.34,13.34,0,0,1-4.32,9.89,14.53,14.53,0,0,1-10.51,4.2,15.45,15.45,0,0,1-8.64-2.54Q216.33,379.16,213.06,373.18Z" transform="translate(-119.5 -265.18)"/><path class="cls-1" d="M286.51,370.09l4.2,2.21a22.81,22.81,0,0,1-4.77,6.55,18.94,18.94,0,0,1-6.09,3.79,21.23,21.23,0,0,1-7.66,1.3q-9.47,0-14.81-6.21a20.94,20.94,0,0,1-5.34-14,20.69,20.69,0,0,1,4.52-13.13,18.49,18.49,0,0,1,15.34-7.33,19.09,19.09,0,0,1,15.81,7.51A21,21,0,0,1,292,364H257.17A15.76,15.76,0,0,0,261.48,375a13.75,13.75,0,0,0,10.29,4.31,16.53,16.53,0,0,0,5.75-1,15.19,15.19,0,0,0,4.75-2.73A23.18,23.18,0,0,0,286.51,370.09Zm0-10.42a16.5,16.5,0,0,0-2.9-6.37,13.73,13.73,0,0,0-5-3.84A15.42,15.42,0,0,0,272,348a14.2,14.2,0,0,0-9.8,3.66,16.57,16.57,0,0,0-4.52,8Z" transform="translate(-119.5 -265.18)"/><path class="cls-1" d="M299.39,344.23h5.09v5.66a17.8,17.8,0,0,1,4.8-5,9.47,9.47,0,0,1,5.26-1.66,9.06,9.06,0,0,1,4.41,1.32l-2.6,4.2a6.88,6.88,0,0,0-2.63-.68,7.19,7.19,0,0,0-4.8,2,12.91,12.91,0,0,0-3.52,6.35q-.92,3.31-.92,13.38v13.09h-5.09Z" transform="translate(-119.5 -265.18)"/><path class="cls-1" d="M319.53,344.23h5.3l13,28.21,12.84-28.21H356l-17.72,38.7h-.93Z" transform="translate(-119.5 -265.18)"/><path class="cls-1" d="M365.29,328.29a4.12,4.12,0,1,1-2.87,1.21A3.95,3.95,0,0,1,365.29,328.29Zm-2.47,15.93h5v38.7h-5Z" transform="translate(-119.5 -265.18)"/><path class="cls-1" d="M415.71,352.27l-3.95,2.45a16.54,16.54,0,0,0-14-6.79,16.16,16.16,0,0,0-11.74,4.55,14.85,14.85,0,0,0-4.67,11.05,15.69,15.69,0,0,0,2.15,8,15.08,15.08,0,0,0,5.9,5.79,17.16,17.16,0,0,0,8.4,2.06,17,17,0,0,0,13.93-6.8l3.95,2.6a18.64,18.64,0,0,1-7.45,6.48,23.8,23.8,0,0,1-10.65,2.31,21.05,21.05,0,0,1-15.22-5.83,19,19,0,0,1-6-14.19,20.28,20.28,0,0,1,2.83-10.44,19.92,19.92,0,0,1,7.77-7.52A22.67,22.67,0,0,1,398,343.23a23.6,23.6,0,0,1,7.42,1.18,20.67,20.67,0,0,1,6.07,3.06A16.68,16.68,0,0,1,415.71,352.27Z" transform="translate(-119.5 -265.18)"/><path class="cls-1" d="M457.87,370.09l4.2,2.21a22.88,22.88,0,0,1-4.77,6.55,19,19,0,0,1-6.09,3.79,21.23,21.23,0,0,1-7.66,1.3q-9.47,0-14.81-6.21a20.94,20.94,0,0,1-5.34-14,20.69,20.69,0,0,1,4.52-13.13,18.49,18.49,0,0,1,15.35-7.33,19.1,19.1,0,0,1,15.81,7.51A20.93,20.93,0,0,1,463.34,364H428.52A15.75,15.75,0,0,0,432.83,375a13.75,13.75,0,0,0,10.29,4.31,16.51,16.51,0,0,0,5.75-1,15.17,15.17,0,0,0,4.76-2.73A23.18,23.18,0,0,0,457.87,370.09Zm0-10.42a16.55,16.55,0,0,0-2.9-6.37,13.76,13.76,0,0,0-5-3.84,15.44,15.44,0,0,0-6.59-1.46,14.19,14.19,0,0,0-9.79,3.66,16.57,16.57,0,0,0-4.52,8Z" transform="translate(-119.5 -265.18)"/><path class="cls-1" d="M492.09,348.46l-3.2,3.31q-4-3.88-7.81-3.88a5.89,5.89,0,0,0-4.15,1.6,4.94,4.94,0,0,0-1.73,3.73,5.52,5.52,0,0,0,1.43,3.59q1.42,1.74,6,4.09,5.56,2.88,7.56,5.55a10.12,10.12,0,0,1,2,6.08,10.92,10.92,0,0,1-3.35,8.08,11.43,11.43,0,0,1-8.37,3.31,14.64,14.64,0,0,1-6.4-1.46,13.91,13.91,0,0,1-5-4l3.13-3.56q3.81,4.3,8.09,4.3a7.28,7.28,0,0,0,5.1-1.92,5.93,5.93,0,0,0,2.1-4.52A5.78,5.78,0,0,0,486,369q-1.39-1.64-6.27-4.13-5.24-2.7-7.13-5.34a10,10,0,0,1-1.89-6,9.79,9.79,0,0,1,3-7.33,10.49,10.49,0,0,1,7.61-2.92Q486.67,343.23,492.09,348.46Z" transform="translate(-119.5 -265.18)"/><path class="cls-2" d="M125.4,402.26v14h5.38v3.38H121.4V402.26Z" transform="translate(-119.5 -265.18)"/><path class="cls-2" d="M143.34,405.64v14h-4v-14h-3.77v-3.38h11.54v3.38Z" transform="translate(-119.5 -265.18)"/><path class="cls-2" d="M162.11,406.5a4.22,4.22,0,0,0-2.91-1.25,2.17,2.17,0,0,0-1.69.6,1.55,1.55,0,0,0-.44,1.09,1.22,1.22,0,0,0,.39,1,7,7,0,0,0,2.18,1l1.3.49a7,7,0,0,1,2.37,1.33,4.32,4.32,0,0,1,1.27,3.22,6.22,6.22,0,0,1-1.53,4.29,6.72,6.72,0,0,1-4.91,1.77,7.35,7.35,0,0,1-3.43-.73,11,11,0,0,1-2.55-1.9l2.08-2.86a10.69,10.69,0,0,0,1.61,1.33,4,4,0,0,0,2.18.62,2.77,2.77,0,0,0,1.82-.6,1.79,1.79,0,0,0,.62-1.4,1.53,1.53,0,0,0-.6-1.25,8.51,8.51,0,0,0-2-1l-1.43-.49a5.84,5.84,0,0,1-2.42-1.38,4.26,4.26,0,0,1-1-3,5.33,5.33,0,0,1,1.51-3.9,5.58,5.58,0,0,1,4.29-1.59,8.38,8.38,0,0,1,5.15,1.72Z" transform="translate(-119.5 -265.18)"/><path class="cls-2" d="M181.79,416.33h-6.55l-1.33,3.28h-4.16l7-17.34h3.67l6.84,17.34h-4.16Zm-1.09-3.07-2.13-5.82-2.16,5.82Z" transform="translate(-119.5 -265.18)"/><path class="cls-2" d="M203.5,405.64h-5.62V409h5.2v3.38h-5.2v7.23h-4V402.26h9.62Z" transform="translate(-119.5 -265.18)"/><path class="cls-2" d="M220.92,405.64h-5.8V409h5.51v3.38h-5.51v3.85h5.8v3.38h-9.8V402.26h9.8Z" transform="translate(-119.5 -265.18)"/><path class="cls-2" d="M234.94,405.64v14h-4v-14h-3.77v-3.38h11.54v3.38Z" transform="translate(-119.5 -265.18)"/><path class="cls-2" d="M250.61,411.52l-6.21-9.26h4.73l3.48,5.38,3.48-5.38h4.73l-6.21,9.26v8.09h-4Z" transform="translate(-119.5 -265.18)"/><path class="cls-2" d="M275.26,406.5a4.22,4.22,0,0,0-2.91-1.25,2.17,2.17,0,0,0-1.69.6,1.55,1.55,0,0,0-.44,1.09,1.22,1.22,0,0,0,.39,1,7,7,0,0,0,2.18,1l1.3.49a7,7,0,0,1,2.37,1.33,4.32,4.32,0,0,1,1.27,3.22,6.22,6.22,0,0,1-1.53,4.29,6.72,6.72,0,0,1-4.91,1.77,7.35,7.35,0,0,1-3.43-.73,11,11,0,0,1-2.55-1.9l2.08-2.86a10.69,10.69,0,0,0,1.61,1.33,4,4,0,0,0,2.18.62,2.77,2.77,0,0,0,1.82-.6,1.79,1.79,0,0,0,.62-1.4,1.53,1.53,0,0,0-.6-1.25,8.51,8.51,0,0,0-2-1l-1.43-.49a5.84,5.84,0,0,1-2.42-1.38,4.26,4.26,0,0,1-1-3,5.33,5.33,0,0,1,1.51-3.9,5.58,5.58,0,0,1,4.29-1.59,8.38,8.38,0,0,1,5.15,1.72Z" transform="translate(-119.5 -265.18)"/><path class="cls-2" d="M295.1,405.64h-5.8V409h5.51v3.38H289.3v3.85h5.8v3.38h-9.8V402.26h9.8Z" transform="translate(-119.5 -265.18)"/><path class="cls-2" d="M309.11,402.26a6.21,6.21,0,0,1,4.42,1.51,5.23,5.23,0,0,1,1.51,3.87,4.75,4.75,0,0,1-1.35,3.54,5.46,5.46,0,0,1-2.42,1.33l5.33,7.1h-4.89L307,412.77v6.84h-4V402.26ZM307,410.14h.91a3.29,3.29,0,0,0,2.39-.75,2.33,2.33,0,0,0,.65-1.69,2.11,2.11,0,0,0-.81-1.77,3.91,3.91,0,0,0-2.21-.55H307Z" transform="translate(-119.5 -265.18)"/><path class="cls-2" d="M325.75,402.26l4.39,11.1,4.39-11.1h4.32L331.5,419.6h-2.7l-7.36-17.34Z" transform="translate(-119.5 -265.18)"/><path class="cls-2" d="M349.62,402.26V419.6h-4V402.26Z" transform="translate(-119.5 -265.18)"/><path class="cls-2" d="M370.71,419.06a8.05,8.05,0,0,1-3.82.94,9.29,9.29,0,0,1-6.81-2.52,9.29,9.29,0,0,1,0-13.1,9.21,9.21,0,0,1,6.47-2.5,10.32,10.32,0,0,1,4.16,1v4.63a5.5,5.5,0,0,0-4.06-1.85,4.87,4.87,0,0,0-3.54,1.35,5.56,5.56,0,0,0-1.64,4,5.07,5.07,0,0,0,5.25,5.28,5.47,5.47,0,0,0,4-1.79Z" transform="translate(-119.5 -265.18)"/><path class="cls-2" d="M388.39,405.64h-5.8V409h5.51v3.38h-5.51v3.85h5.8v3.38h-9.8V402.26h9.8Z" transform="translate(-119.5 -265.18)"/><path class="cls-2" d="M405.26,406.5a4.23,4.23,0,0,0-2.91-1.25,2.17,2.17,0,0,0-1.69.6,1.55,1.55,0,0,0-.44,1.09,1.22,1.22,0,0,0,.39,1,7,7,0,0,0,2.18,1l1.3.49a7,7,0,0,1,2.37,1.33,4.32,4.32,0,0,1,1.27,3.22,6.22,6.22,0,0,1-1.53,4.29,6.72,6.72,0,0,1-4.91,1.77,7.35,7.35,0,0,1-3.43-.73,11,11,0,0,1-2.55-1.9l2.08-2.86a10.69,10.69,0,0,0,1.61,1.33,4,4,0,0,0,2.18.62,2.77,2.77,0,0,0,1.82-.6,1.79,1.79,0,0,0,.62-1.4,1.53,1.53,0,0,0-.6-1.25,8.5,8.5,0,0,0-2-1l-1.43-.49a5.83,5.83,0,0,1-2.42-1.38,4.26,4.26,0,0,1-1-3,5.33,5.33,0,0,1,1.51-3.9,5.58,5.58,0,0,1,4.29-1.59,8.38,8.38,0,0,1,5.15,1.72Z" transform="translate(-119.5 -265.18)"/><path class="cls-2" d="M417,415.29a2.37,2.37,0,1,1-2.37,2.37A2.34,2.34,0,0,1,417,415.29Z" transform="translate(-119.5 -265.18)"/><path class="cls-2" d="M439.74,419.06a8.05,8.05,0,0,1-3.82.94,9.29,9.29,0,0,1-6.81-2.52,9.29,9.29,0,0,1,0-13.1,9.21,9.21,0,0,1,6.47-2.5,10.32,10.32,0,0,1,4.16,1v4.63a5.5,5.5,0,0,0-4.06-1.85,4.87,4.87,0,0,0-3.54,1.35,5.56,5.56,0,0,0-1.64,4,5.07,5.07,0,0,0,5.25,5.28,5.47,5.47,0,0,0,4-1.79Z" transform="translate(-119.5 -265.18)"/><path class="cls-2" d="M463,404.39a9.23,9.23,0,0,1,0,13.05,9.26,9.26,0,0,1-6.71,2.55,9.55,9.55,0,0,1-6.76-2.55,8.86,8.86,0,0,1-2.7-6.45,9.68,9.68,0,0,1,2.68-6.58,10.25,10.25,0,0,1,13.49,0ZM452.45,407a5.31,5.31,0,0,0-1.53,3.93,5.18,5.18,0,0,0,1.59,3.9,5.1,5.1,0,0,0,3.72,1.43,5.25,5.25,0,0,0,3.85-1.48,5.2,5.2,0,0,0,1.51-3.87,5.47,5.47,0,0,0-1.51-3.9,5.56,5.56,0,0,0-3.82-1.48A5.32,5.32,0,0,0,452.45,407Z" transform="translate(-119.5 -265.18)"/><path class="cls-2" d="M472.55,419.6l2.78-17.34h3.33L483,412.63l4.32-10.37h3.33l2.78,17.34h-4L488,409.25l-4.34,10.35h-1.4l-4.34-10.35-1.38,10.35Z" transform="translate(-119.5 -265.18)"/></svg>